<?xml version="1.0" encoding="UTF-8" standalone="no"?>
<svg
   xmlns:dc="http://purl.org/dc/elements/1.1/"
   xmlns:cc="http://creativecommons.org/ns#"
   xmlns:rdf="http://www.w3.org/1999/02/22-rdf-syntax-ns#"
   xmlns:svg="http://www.w3.org/2000/svg"
   xmlns="http://www.w3.org/2000/svg"
   xmlns:sodipodi="http://sodipodi.sourceforge.net/DTD/sodipodi-0.dtd"
   xmlns:inkscape="http://www.inkscape.org/namespaces/inkscape"
   version="1.1"
   width="256"
   height="256"
   viewBox="0 0 256 256"
   xml:space="preserve"
   id="svg22"
   sodipodi:docname="dna-3544.svg"
   inkscape:version="0.92.4 (5da689c313, 2019-01-14)"><metadata
   id="metadata26"><rdf:RDF><cc:Work
       rdf:about=""><dc:format>image/svg+xml</dc:format><dc:type
         rdf:resource="http://purl.org/dc/dcmitype/StillImage" /></cc:Work></rdf:RDF></metadata><sodipodi:namedview
   pagecolor="#ffffff"
   bordercolor="#666666"
   borderopacity="1"
   objecttolerance="10"
   gridtolerance="10"
   guidetolerance="10"
   inkscape:pageopacity="0"
   inkscape:pageshadow="2"
   inkscape:window-width="1920"
   inkscape:window-height="1001"
   id="namedview24"
   showgrid="false"
   inkscape:zoom="0.921875"
   inkscape:cx="-4.3389831"
   inkscape:cy="128"
   inkscape:window-x="-9"
   inkscape:window-y="-9"
   inkscape:window-maximized="1"
   inkscape:current-layer="svg22" />

<defs
   id="defs2">
</defs>
<g
   style="opacity:1;fill:#006680;fill-rule:nonzero;stroke:none;stroke-width:0;stroke-linecap:butt;stroke-linejoin:miter;stroke-miterlimit:10;stroke-dasharray:none"
   transform="matrix(2.0217561,1.3221747,-1.951564,1.3697294,124.69844,-51.176866)"
   id="g20">
	
	
	
	
	
	
	
	
</g>
<g
   id="g876"
   inkscape:export-xdpi="33.424873"
   inkscape:export-ydpi="33.424873"><path
     inkscape:connector-curvature="0"
     id="path4"
     style="opacity:1;fill:#006680;fill-rule:nonzero;stroke:none;stroke-width:1;stroke-linecap:butt;stroke-linejoin:miter;stroke-miterlimit:10;stroke-dasharray:none"
     d="m 73.352,33.287 c -1.16,0 -2.35,-0.064 -3.563,-0.193 -0.824,-0.088 -1.42,-0.827 -1.332,-1.651 0.088,-0.825 0.841,-1.413 1.65,-1.333 7.211,0.774 13.366,-0.99 17.333,-4.956 0.586,-0.586 1.535,-0.586 2.121,0 0.586,0.586 0.586,1.536 0,2.121 -3.93,3.93 -9.599,6.012 -16.209,6.012 z"
     transform="matrix(2.0217561,1.3221747,-1.951564,1.3697294,124.69844,-51.176866)" /><path
     inkscape:connector-curvature="0"
     id="path12"
     style="opacity:1;fill:#374548;fill-rule:nonzero;stroke:none;stroke-width:1;stroke-linecap:butt;stroke-linejoin:miter;stroke-miterlimit:10;stroke-dasharray:none"
     d="m 61.713,51.758 c -0.384,0 -0.768,-0.146 -1.061,-0.439 L 38.685,29.351 c -0.586,-0.585 -0.586,-1.536 0,-2.121 0.586,-0.586 1.535,-0.586 2.121,0 l 21.968,21.968 c 0.586,0.586 0.586,1.535 0,2.121 -0.294,0.292 -0.677,0.439 -1.061,0.439 z"
     transform="matrix(2.0217561,1.3221747,-1.951564,1.3697294,124.69844,-51.176866)" /><path
     inkscape:connector-curvature="0"
     id="path6"
     style="opacity:1;fill:#006680;fill-rule:nonzero;stroke:none;stroke-width:1;stroke-linecap:butt;stroke-linejoin:miter;stroke-miterlimit:10;stroke-dasharray:none"
     d="m 26.214,90 c -0.384,0 -0.768,-0.146 -1.061,-0.439 -0.586,-0.586 -0.586,-1.535 0,-2.121 5.682,-5.683 6.724,-15.295 2.858,-26.374 C 24.045,49.694 24.94,39.392 30.467,32.8 c 4.991,-5.954 13.106,-8.365 22.838,-6.79 0.818,0.132 1.374,0.903 1.241,1.721 -0.133,0.818 -0.907,1.366 -1.72,1.241 -8.652,-1.401 -15.775,0.645 -20.061,5.755 -4.831,5.762 -5.531,15.001 -1.92,25.35 4.259,12.209 2.958,22.955 -3.57,29.483 C 26.982,89.854 26.598,90 26.214,90 Z"
     transform="matrix(2.0217561,1.3221747,-1.951564,1.3697294,124.69844,-51.176866)" /><path
     inkscape:connector-curvature="0"
     id="path8"
     style="opacity:1;fill:#006680;fill-rule:nonzero;stroke:none;stroke-width:1;stroke-linecap:butt;stroke-linejoin:miter;stroke-miterlimit:10;stroke-dasharray:none"
     d="m 42.32,64.459 c -1.732,0 -3.535,-0.144 -5.399,-0.434 -0.818,-0.128 -1.379,-0.895 -1.251,-1.713 0.127,-0.819 0.897,-1.372 1.713,-1.252 8.575,1.34 15.636,-0.731 19.881,-5.823 4.804,-5.764 5.493,-14.99 1.892,-25.314 -4.259,-12.21 -2.958,-22.956 3.57,-29.483 0.586,-0.586 1.535,-0.586 2.121,0 0.586,0.586 0.586,1.536 0,2.121 -5.682,5.682 -6.724,15.294 -2.859,26.374 3.958,11.344 3.076,21.631 -2.419,28.224 -3.992,4.787 -10.002,7.3 -17.249,7.3 z"
     transform="matrix(2.0217561,1.3221747,-1.951564,1.3697294,124.69844,-51.176866)" /><path
     inkscape:connector-curvature="0"
     id="path10"
     style="opacity:1;fill:#006680;fill-rule:nonzero;stroke:none;stroke-width:1;stroke-linecap:butt;stroke-linejoin:miter;stroke-miterlimit:10;stroke-dasharray:none"
     d="m 1.5,65.286 c -0.384,0 -0.768,-0.146 -1.061,-0.439 -0.586,-0.586 -0.586,-1.535 0,-2.121 5.047,-5.047 12.812,-7.013 21.865,-5.536 0.817,0.134 1.372,0.904 1.239,1.722 -0.134,0.818 -0.907,1.372 -1.722,1.239 C 13.748,58.835 6.907,60.501 2.561,64.847 2.268,65.14 1.884,65.286 1.5,65.286 Z"
     transform="matrix(2.0217561,1.3221747,-1.951564,1.3697294,124.69844,-51.176866)" /><path
     inkscape:connector-curvature="0"
     id="path14"
     style="opacity:1;fill:#006680;fill-rule:nonzero;stroke:none;stroke-width:1;stroke-linecap:butt;stroke-linejoin:miter;stroke-miterlimit:10;stroke-dasharray:none"
     d="m 50.258,63.213 c -0.384,0 -0.768,-0.146 -1.061,-0.439 L 27.229,40.806 c -0.586,-0.585 -0.586,-1.536 0,-2.121 0.586,-0.586 1.535,-0.586 2.121,0 l 21.968,21.968 c 0.586,0.586 0.586,1.535 0,2.121 -0.293,0.292 -0.676,0.439 -1.06,0.439 z"
     transform="matrix(2.0217561,1.3221747,-1.951564,1.3697294,124.69844,-51.176866)" /><path
     inkscape:connector-curvature="0"
     id="path16"
     style="opacity:1;fill:#006680;fill-rule:nonzero;stroke:none;stroke-width:1;stroke-linecap:butt;stroke-linejoin:miter;stroke-miterlimit:10;stroke-dasharray:none"
     d="m 82.111,31.79 c -0.384,0 -0.768,-0.146 -1.061,-0.439 L 58.646,8.946 c -0.586,-0.585 -0.586,-1.536 0,-2.121 0.586,-0.586 1.535,-0.586 2.121,0 L 83.171,29.23 c 0.586,0.585 0.586,1.536 0,2.121 -0.292,0.293 -0.676,0.439 -1.06,0.439 z"
     transform="matrix(2.0217561,1.3221747,-1.951564,1.3697294,124.69844,-51.176866)" /><path
     inkscape:connector-curvature="0"
     id="path18"
     style="opacity:1;fill:#006680;fill-rule:nonzero;stroke:none;stroke-width:1;stroke-linecap:butt;stroke-linejoin:miter;stroke-miterlimit:10;stroke-dasharray:none"
     d="m 29.133,84.769 c -0.384,0 -0.768,-0.146 -1.061,-0.439 L 5.667,61.925 c -0.586,-0.586 -0.586,-1.535 0,-2.121 0.586,-0.586 1.535,-0.586 2.121,0 l 22.405,22.404 c 0.586,0.586 0.586,1.535 0,2.121 -0.293,0.293 -0.676,0.44 -1.06,0.44 z"
     transform="matrix(2.0217561,1.3221747,-1.951564,1.3697294,124.69844,-51.176866)" /><g
     style="opacity:1;fill:#006680;fill-rule:nonzero;stroke:none;stroke-width:0;stroke-linecap:butt;stroke-linejoin:miter;stroke-miterlimit:10;stroke-dasharray:none"
     transform="matrix(2.0217561,1.3221747,-1.951564,1.3697294,124.69844,48.823134)"
     id="g849">
	<path
   d="m 73.352,33.287 c -1.16,0 -2.35,-0.064 -3.563,-0.193 -0.824,-0.088 -1.42,-0.827 -1.332,-1.651 0.088,-0.825 0.841,-1.413 1.65,-1.333 7.211,0.774 13.366,-0.99 17.333,-4.956 0.586,-0.586 1.535,-0.586 2.121,0 0.586,0.586 0.586,1.536 0,2.121 -3.93,3.93 -9.599,6.012 -16.209,6.012 z"
   style="opacity:1;fill:#006680;fill-rule:nonzero;stroke:none;stroke-width:1;stroke-linecap:butt;stroke-linejoin:miter;stroke-miterlimit:10;stroke-dasharray:none"
   id="path833"
   inkscape:connector-curvature="0" />
	<path
   d="m 61.713,51.758 c -0.384,0 -0.768,-0.146 -1.061,-0.439 L 38.685,29.351 c -0.586,-0.585 -0.586,-1.536 0,-2.121 0.586,-0.586 1.535,-0.586 2.121,0 l 21.968,21.968 c 0.586,0.586 0.586,1.535 0,2.121 -0.294,0.292 -0.677,0.439 -1.061,0.439 z"
   style="opacity:1;fill:#93a7ac;fill-rule:nonzero;stroke:none;stroke-width:1;stroke-linecap:butt;stroke-linejoin:miter;stroke-miterlimit:10;stroke-dasharray:none"
   id="path841"
   inkscape:connector-curvature="0" /><path
   d="m 26.214,90 c -0.384,0 -0.768,-0.146 -1.061,-0.439 -0.586,-0.586 -0.586,-1.535 0,-2.121 5.682,-5.683 6.724,-15.295 2.858,-26.374 C 24.045,49.694 24.94,39.392 30.467,32.8 c 4.991,-5.954 13.106,-8.365 22.838,-6.79 0.818,0.132 1.374,0.903 1.241,1.721 -0.133,0.818 -0.907,1.366 -1.72,1.241 -8.652,-1.401 -15.775,0.645 -20.061,5.755 -4.831,5.762 -5.531,15.001 -1.92,25.35 4.259,12.209 2.958,22.955 -3.57,29.483 C 26.982,89.854 26.598,90 26.214,90 Z"
   style="opacity:1;fill:#006680;fill-rule:nonzero;stroke:none;stroke-width:1;stroke-linecap:butt;stroke-linejoin:miter;stroke-miterlimit:10;stroke-dasharray:none"
   id="path835"
   inkscape:connector-curvature="0" />
	<path
   d="m 42.32,64.459 c -1.732,0 -3.535,-0.144 -5.399,-0.434 -0.818,-0.128 -1.379,-0.895 -1.251,-1.713 0.127,-0.819 0.897,-1.372 1.713,-1.252 8.575,1.34 15.636,-0.731 19.881,-5.823 4.804,-5.764 5.493,-14.99 1.892,-25.314 -4.259,-12.21 -2.958,-22.956 3.57,-29.483 0.586,-0.586 1.535,-0.586 2.121,0 0.586,0.586 0.586,1.536 0,2.121 -5.682,5.682 -6.724,15.294 -2.859,26.374 3.958,11.344 3.076,21.631 -2.419,28.224 -3.992,4.787 -10.002,7.3 -17.249,7.3 z"
   style="opacity:1;fill:#006680;fill-rule:nonzero;stroke:none;stroke-width:1;stroke-linecap:butt;stroke-linejoin:miter;stroke-miterlimit:10;stroke-dasharray:none"
   id="path837"
   inkscape:connector-curvature="0" />
	<path
   d="m 1.5,65.286 c -0.384,0 -0.768,-0.146 -1.061,-0.439 -0.586,-0.586 -0.586,-1.535 0,-2.121 5.047,-5.047 12.812,-7.013 21.865,-5.536 0.817,0.134 1.372,0.904 1.239,1.722 -0.134,0.818 -0.907,1.372 -1.722,1.239 C 13.748,58.835 6.907,60.501 2.561,64.847 2.268,65.14 1.884,65.286 1.5,65.286 Z"
   style="opacity:1;fill:#006680;fill-rule:nonzero;stroke:none;stroke-width:1;stroke-linecap:butt;stroke-linejoin:miter;stroke-miterlimit:10;stroke-dasharray:none"
   id="path839"
   inkscape:connector-curvature="0" />
	
	<path
   d="m 50.258,63.213 c -0.384,0 -0.768,-0.146 -1.061,-0.439 L 27.229,40.806 c -0.586,-0.585 -0.586,-1.536 0,-2.121 0.586,-0.586 1.535,-0.586 2.121,0 l 21.968,21.968 c 0.586,0.586 0.586,1.535 0,2.121 -0.293,0.292 -0.676,0.439 -1.06,0.439 z"
   style="opacity:1;fill:#006680;fill-rule:nonzero;stroke:none;stroke-width:1;stroke-linecap:butt;stroke-linejoin:miter;stroke-miterlimit:10;stroke-dasharray:none"
   id="path843"
   inkscape:connector-curvature="0" />
	<path
   d="m 82.111,31.79 c -0.384,0 -0.768,-0.146 -1.061,-0.439 L 58.646,8.946 c -0.586,-0.585 -0.586,-1.536 0,-2.121 0.586,-0.586 1.535,-0.586 2.121,0 L 83.171,29.23 c 0.586,0.585 0.586,1.536 0,2.121 -0.292,0.293 -0.676,0.439 -1.06,0.439 z"
   style="opacity:1;fill:#006680;fill-rule:nonzero;stroke:none;stroke-width:1;stroke-linecap:butt;stroke-linejoin:miter;stroke-miterlimit:10;stroke-dasharray:none"
   id="path845"
   inkscape:connector-curvature="0" />
	<path
   d="m 29.133,84.769 c -0.384,0 -0.768,-0.146 -1.061,-0.439 L 5.667,61.925 c -0.586,-0.586 -0.586,-1.535 0,-2.121 0.586,-0.586 1.535,-0.586 2.121,0 l 22.405,22.404 c 0.586,0.586 0.586,1.535 0,2.121 -0.293,0.293 -0.676,0.44 -1.06,0.44 z"
   style="opacity:1;fill:#006680;fill-rule:nonzero;stroke:none;stroke-width:1;stroke-linecap:butt;stroke-linejoin:miter;stroke-miterlimit:10;stroke-dasharray:none"
   id="path847"
   inkscape:connector-curvature="0" />
</g></g></svg>