<?xml version="1.0" encoding="UTF-8" standalone="no"?>
<!-- Created with Inkscape (http://www.inkscape.org/) -->

<svg
   xmlns:dc="http://purl.org/dc/elements/1.1/"
   xmlns:cc="http://creativecommons.org/ns#"
   xmlns:rdf="http://www.w3.org/1999/02/22-rdf-syntax-ns#"
   xmlns:svg="http://www.w3.org/2000/svg"
   xmlns="http://www.w3.org/2000/svg"
   xmlns:sodipodi="http://sodipodi.sourceforge.net/DTD/sodipodi-0.dtd"
   xmlns:inkscape="http://www.inkscape.org/namespaces/inkscape"
   width="210mm"
   height="21mm"
   viewBox="0 0 210 21"
   version="1.1"
   id="svg8"
   inkscape:version="0.92.4 (5da689c313, 2019-01-14)"
   sodipodi:docname="integritytext.svg"
   inkscape:export-filename="C:\Users\migue\OneDrive\Documentos\proyectos\2024_Servicios_bioinfomraticos\hero\hero\static\faviconlog.png"
   inkscape:export-xdpi="12.300238"
   inkscape:export-ydpi="12.300238">
  <defs
     id="defs2" />
  <sodipodi:namedview
     id="base"
     pagecolor="#ffffff"
     bordercolor="#666666"
     borderopacity="1.0"
     inkscape:pageopacity="0.0"
     inkscape:pageshadow="2"
     inkscape:zoom="0.49497474"
     inkscape:cx="153.06992"
     inkscape:cy="503.67262"
     inkscape:document-units="mm"
     inkscape:current-layer="layer1"
     showgrid="false"
     inkscape:window-width="1920"
     inkscape:window-height="1001"
     inkscape:window-x="-9"
     inkscape:window-y="-9"
     inkscape:window-maximized="1" />
  <metadata
     id="metadata5">
    <rdf:RDF>
      <cc:Work
         rdf:about="">
        <dc:format>image/svg+xml</dc:format>
        <dc:type
           rdf:resource="http://purl.org/dc/dcmitype/StillImage" />
        <dc:title></dc:title>
      </cc:Work>
    </rdf:RDF>
  </metadata>
  <g
     inkscape:label="Layer 1"
     inkscape:groupmode="layer"
     id="layer1"
     transform="translate(0,-276)">
    <g
       id="g859"
       transform="matrix(0.12481255,0,0,0.12481255,11.93223,271.59565)">
      <ellipse
         style="opacity:0.56199999;fill:#ffffff;fill-opacity:1;stroke:#216778;stroke-width:1.59300005;stroke-linecap:round;stroke-linejoin:round;stroke-miterlimit:10;stroke-dasharray:none;stroke-dashoffset:0;stroke-opacity:1;paint-order:markers fill stroke"
         id="ellipse915"
         cx="106.31956"
         cy="122.21109"
         rx="84.973053"
         ry="79.974632" />
      <ellipse
         ry="85.526245"
         rx="90.871643"
         cy="122.21109"
         cx="106.31956"
         id="path913"
         style="opacity:0.56199999;fill:#ffffff;fill-opacity:1;stroke:#216778;stroke-width:3.62800002;stroke-linecap:round;stroke-linejoin:round;stroke-miterlimit:10;stroke-dasharray:none;stroke-dashoffset:0;stroke-opacity:1;paint-order:markers fill stroke" />
      <g
         transform="matrix(0.85587222,0,0,0.81263495,-269.81878,-51.520665)"
         id="g826">
        <path
           sodipodi:nodetypes="ccssccscccc"
           inkscape:connector-curvature="0"
           id="path867"
           d="m 407.82717,166.1059 c -1.24171,-2.86045 0.79011,-13.55304 3.80424,-20.02007 3.84002,-8.23906 10.12427,-15.6417 18.23811,-21.48393 4.15223,-2.98974 8.46341,-6.18382 10.67731,-6.84976 2.99183,-0.89994 5.46422,4.34403 2.68076,6.06034 -0.73499,0.45321 0.35904,-0.0758 -3.34345,2.0583 -10.54972,6.08071 -16.45962,11.57409 -21.13361,19.64414 -2.90048,5.00792 -4.21483,8.61499 -5.27389,14.47351 -0.45236,2.50241 -0.94316,5.21709 -1.09065,6.03262 -0.3745,2.07061 -3.67017,2.13195 -4.55882,0.0848 z"
           style="opacity:0.56199999;fill:#216778;fill-opacity:1;stroke:#216778;stroke-width:1.63307631;stroke-linecap:round;stroke-linejoin:round;stroke-miterlimit:10;stroke-dasharray:none;stroke-dashoffset:0;stroke-opacity:1;paint-order:markers fill stroke" />
        <path
           inkscape:connector-curvature="0"
           id="path869"
           d="m 431.64885,140.44626 c 4.52785,-3.80409 6.46178,-4.57517 11.47482,-4.57517 h 4.82862 v 2.96557 2.96557 l -8.95353,-0.004 -8.95353,-0.004 z"
           style="opacity:0.56199999;fill:#216778;fill-opacity:1;stroke:#216778;stroke-width:1.63307631;stroke-linecap:round;stroke-linejoin:round;stroke-miterlimit:10;stroke-dasharray:none;stroke-dashoffset:0;stroke-opacity:1;paint-order:markers fill stroke" />
        <path
           inkscape:connector-curvature="0"
           id="path871"
           d="m 448.7541,156.95958 c -0.58799,-0.3115 -3.59478,-0.59048 -6.68174,-0.61994 -3.08696,-0.0295 -6.51469,-0.23739 -7.61718,-0.46206 -1.83441,-0.37381 -2.00452,-0.5892 -2.00452,-2.53794 v -2.12946 l 7.61718,-0.39814 c 4.18945,-0.21898 8.25513,-0.58545 9.03485,-0.81438 2.96122,-0.86944 4.95569,4.45067 2.47244,6.59505 -1.33187,1.15011 -1.3405,1.15123 -2.82103,0.36687 z"
           style="opacity:0.56199999;fill:#216778;fill-opacity:1;stroke:#216778;stroke-width:1.63307631;stroke-linecap:round;stroke-linejoin:round;stroke-miterlimit:10;stroke-dasharray:none;stroke-dashoffset:0;stroke-opacity:1;paint-order:markers fill stroke" />
        <path
           inkscape:connector-curvature="0"
           id="path873"
           d="m 424.26858,157.15523 c -0.53119,-0.16869 -1.18672,-1.02311 -1.45675,-1.89871 -1.44122,-4.67343 3.59462,-7.76003 5.26897,-3.2295 0.63718,1.72412 0.0397,4.93256 -0.91858,4.93256 -0.27723,0 -0.82441,0.11303 -1.21595,0.25118 -0.39154,0.13815 -1.1465,0.11316 -1.67769,-0.0555 z"
           style="opacity:0.56199999;fill:#216778;fill-opacity:1;stroke:#216778;stroke-width:1.63307631;stroke-linecap:round;stroke-linejoin:round;stroke-miterlimit:10;stroke-dasharray:none;stroke-dashoffset:0;stroke-opacity:1;paint-order:markers fill stroke" />
        <path
           inkscape:connector-curvature="0"
           id="path875"
           d="m 423.51193,170.63416 c -1.72116,-2.74236 -0.72678,-6.4254 1.73477,-6.4254 1.85892,0 3.61473,2.30962 3.15684,4.15256 -0.57072,2.29701 -1.32003,3.09661 -2.90189,3.09661 -0.80999,0 -1.70537,-0.3707 -1.98972,-0.82377 z"
           style="opacity:0.56199999;fill:#216778;fill-opacity:1;stroke:#216778;stroke-width:1.63307631;stroke-linecap:round;stroke-linejoin:round;stroke-miterlimit:10;stroke-dasharray:none;stroke-dashoffset:0;stroke-opacity:1;paint-order:markers fill stroke" />
        <path
           inkscape:connector-curvature="0"
           id="path877"
           d="m 423.36349,185.29726 c -0.58799,-0.72492 -1.06907,-1.86519 -1.06907,-2.53393 0,-2.67677 3.69158,-4.51351 5.23848,-2.6064 0.35279,0.43495 0.64144,1.7768 0.64144,2.98189 0,1.74558 -0.27877,2.32173 -1.37114,2.83376 -1.89904,0.89015 -2.22123,0.82689 -3.43971,-0.67532 z"
           style="opacity:0.56199999;fill:#216778;fill-opacity:1;stroke:#216778;stroke-width:1.63307631;stroke-linecap:round;stroke-linejoin:round;stroke-miterlimit:10;stroke-dasharray:none;stroke-dashoffset:0;stroke-opacity:1;paint-order:markers fill stroke" />
        <path
           inkscape:connector-curvature="0"
           id="path879"
           d="m 440.60238,170.60164 -8.15172,-0.63814 v -2.15656 -2.15657 l 7.61718,-0.33911 c 4.18945,-0.18651 8.36015,-0.53752 9.26823,-0.78001 1.18893,-0.31749 1.89961,-0.13446 2.53906,0.6539 1.83543,2.26284 0.52347,6.39598 -1.9565,6.1637 -0.64049,-0.06 -4.8328,-0.39623 -9.31625,-0.74721 z"
           style="opacity:0.56199999;fill:#216778;fill-opacity:1;stroke:#216778;stroke-width:1.63307631;stroke-linecap:round;stroke-linejoin:round;stroke-miterlimit:10;stroke-dasharray:none;stroke-dashoffset:0;stroke-opacity:1;paint-order:markers fill stroke" />
        <path
           inkscape:connector-curvature="0"
           id="path883"
           d="m 447.83705,186.11083 c -0.92047,-0.52323 -2.10112,-0.64282 -8.35217,-0.846 l -7.28017,-0.23663 v -2.42131 -2.42131 l 1.67044,-0.0183 c 2.90714,-0.0318 13.90101,-0.63156 15.49575,-0.84539 1.48689,-0.19937 1.55799,-0.17189 2.47224,0.95526 0.79021,0.97421 0.94133,1.39209 0.94133,2.60294 0,3.21573 -2.3147,4.72725 -4.94742,3.2307 z"
           style="opacity:0.56199999;fill:#216778;fill-opacity:1;stroke:#216778;stroke-width:0.81653816;stroke-linecap:round;stroke-linejoin:round;stroke-miterlimit:10;stroke-dasharray:none;stroke-dashoffset:0;stroke-opacity:1;paint-order:markers fill stroke" />
        <path
           inkscape:connector-curvature="0"
           id="path885"
           d="m 463.64972,167.25032 c -0.76109,-0.93832 -1.08392,-2.25834 -1.47015,-6.01144 -0.3885,-3.77502 -1.44158,-7.61703 -3.42053,-12.4793 -1.93091,-4.74424 -1.99449,-5.49473 -0.58903,-6.95275 1.94502,-2.01774 3.90218,-0.49854 6.0635,4.70661 2.42567,5.84182 3.78532,12.03297 3.78532,17.23644 0,2.87021 -0.60681,3.89398 -2.46074,4.1516 -1.06976,0.14866 -1.33228,0.0591 -1.90837,-0.65116 z"
           style="opacity:0.56199999;fill:#216778;fill-opacity:1;stroke:#216778;stroke-width:0.81653816;stroke-linecap:round;stroke-linejoin:round;stroke-miterlimit:10;stroke-dasharray:none;stroke-dashoffset:0;stroke-opacity:1;paint-order:markers fill stroke" />
        <path
           inkscape:connector-curvature="0"
           id="path887"
           d="m 436.18568,201.00286 c -1.72994,-1.37288 -7.1882,-6.4672 -7.1882,-6.7089 0,-0.14798 3.72841,-0.26905 8.28535,-0.26905 4.55695,0 8.28536,0.0675 8.28536,0.14994 0,0.44513 -8.08114,7.46828 -8.5201,7.40465 -0.0914,-0.0132 -0.47947,-0.27273 -0.86241,-0.57664 z"
           style="opacity:0.56199999;fill:#216778;fill-opacity:1;stroke:#216778;stroke-width:0.81653816;stroke-linecap:round;stroke-linejoin:round;stroke-miterlimit:10;stroke-dasharray:none;stroke-dashoffset:0;stroke-opacity:1;paint-order:markers fill stroke" />
        <path
           inkscape:connector-curvature="0"
           id="path889"
           d="m 422.92724,208.08314 c -2.99115,-3.07826 -6.93433,-8.17281 -8.94474,-11.55651 -3.05048,-5.13424 -5.9403,-13.30667 -6.27507,-17.74594 -0.1452,-1.92554 -0.10859,-2.11201 0.58138,-2.96109 0.59309,-0.72985 0.97944,-0.90614 1.98585,-0.90614 1.76879,0 2.23827,0.68131 3.23523,4.69499 1.11911,4.50543 2.52316,8.1409 4.57327,11.84146 1.9772,3.56895 6.57883,9.41483 9.91206,12.59222 1.28623,1.2261 2.33861,2.30683 2.33861,2.40162 0,0.44315 -4.21466,4.05382 -4.73389,4.0555 -0.17817,6.5e-4 -1.38088,-1.08667 -2.6727,-2.41611 z"
           style="opacity:0.56199999;fill:#216778;fill-opacity:1;stroke:#216778;stroke-width:0.81653816;stroke-linecap:round;stroke-linejoin:round;stroke-miterlimit:10;stroke-dasharray:none;stroke-dashoffset:0;stroke-opacity:1;paint-order:markers fill stroke" />
        <path
           inkscape:connector-curvature="0"
           id="path891"
           d="m 423.23637,291.98412 c -7.7401,-7.84676 -12.71728,-17.66475 -14.14357,-27.89959 -0.52012,-3.73235 -0.52244,-9.85142 -0.005,-13.50878 0.91236,-6.45015 2.71222,-11.61978 6.14256,-17.64288 2.49396,-4.37897 5.23967,-7.68314 10.1104,-12.16681 4.55517,-4.19318 5.59237,-5.04199 13.20061,-10.80298 8.04143,-6.08901 10.23483,-8.03666 13.67046,-12.1388 4.283,-5.11388 7.62933,-11.8343 9.64244,-19.36484 0.73279,-2.74122 1.46226,-3.54598 3.21417,-3.54598 2.6848,0 3.18726,2.51657 1.63845,8.20619 -2.76816,10.16895 -9.03349,19.78863 -17.41222,26.73441 -1.32667,1.09978 -5.26359,4.16232 -8.74872,6.80565 -3.48512,2.64334 -7.54916,5.82079 -9.03119,7.06101 -8.51327,7.12428 -14.45381,16.53485 -16.40712,25.99101 -0.86788,4.20147 -1.00608,9.87338 -0.33731,13.84372 0.87994,5.22396 2.71366,10.11657 5.51135,14.70501 1.40527,2.30473 6.36451,8.29774 8.54924,10.33134 1.2518,1.1652 1.45499,1.48847 1.18639,1.88748 -0.3919,0.58217 -4.23182,3.38649 -4.63707,3.38649 -0.15822,0 -1.12291,-0.84674 -2.14375,-1.88165 z"
           style="opacity:0.56199999;fill:#216778;fill-opacity:1;stroke:#216778;stroke-width:0.81653816;stroke-linecap:round;stroke-linejoin:round;stroke-miterlimit:10;stroke-dasharray:none;stroke-dashoffset:0;stroke-opacity:1;paint-order:markers fill stroke" />
        <path
           inkscape:connector-curvature="0"
           id="path893"
           d="m 424.11981,309.32624 c -1.03376,-0.74232 -1.58532,-3.24354 -1.00836,-4.57266 0.34097,-0.78547 1.22241,-1.40618 9.49417,-6.68583 11.27448,-7.1962 14.5151,-9.74916 18.67816,-14.71462 3.62276,-4.32102 5.30821,-7.128 7.37935,-12.28969 2.34005,-5.83189 2.78129,-8.09663 2.77972,-14.2673 -0.001,-3.66724 -0.12364,-5.22069 -0.59843,-7.57639 -0.71738,-3.55938 -2.66899,-8.67136 -4.56706,-11.96284 -1.87412,-3.24995 -6.28737,-8.8584 -9.32048,-11.84465 -1.3677,-1.34657 -2.44474,-2.6036 -2.39343,-2.79338 0.0513,-0.18979 1.08092,-1.09047 2.28802,-2.00151 l 2.19472,-1.65644 1.53505,1.28385 c 2.52686,2.11337 9.09258,10.43822 10.87474,13.78837 3.98015,7.482 5.85692,14.9326 5.8584,23.25725 0.002,11.09098 -3.43074,20.60727 -10.64387,29.50727 -5.63118,6.94811 -8.9224,9.54593 -24.66866,19.47142 -5.50796,3.47189 -6.67442,3.92432 -7.88204,3.05715 z"
           style="opacity:0.56199999;fill:#216778;fill-opacity:1;stroke:#216778;stroke-width:0.81653816;stroke-linecap:round;stroke-linejoin:round;stroke-miterlimit:10;stroke-dasharray:none;stroke-dashoffset:0;stroke-opacity:1;paint-order:markers fill stroke" />
        <path
           inkscape:connector-curvature="0"
           id="path895"
           d="m 430.78141,236.5556 -1.8242,-0.18894 0.75513,-0.85207 c 0.41532,-0.46864 1.72793,-1.76608 2.91693,-2.88319 l 2.1618,-2.03113 h 3.36111 3.36112 l 2.87883,2.88106 2.87882,2.88106 -1.05183,0.23028 c -1.22447,0.26807 -12.75908,0.24038 -15.43771,-0.0371 z"
           style="opacity:0.56199999;fill:#216778;fill-opacity:1;stroke:#216778;stroke-width:0.81653816;stroke-linecap:round;stroke-linejoin:round;stroke-miterlimit:10;stroke-dasharray:none;stroke-dashoffset:0;stroke-opacity:1;paint-order:markers fill stroke" />
        <path
           inkscape:connector-curvature="0"
           id="path897"
           d="m 423.759,251.55697 c -0.77662,-0.95746 -0.90872,-1.34631 -0.90872,-2.67483 0,-1.36377 0.12608,-1.70993 1.02757,-2.82135 0.93546,-1.1533 1.12113,-1.2491 2.07134,-1.06868 1.43003,0.27152 1.92127,0.63259 2.52705,1.85745 1.32633,2.68175 -0.133,5.82774 -2.70332,5.82774 -0.90054,0 -1.27348,-0.20747 -2.01392,-1.12033 z"
           style="opacity:0.56199999;fill:#216778;fill-opacity:1;stroke:#216778;stroke-width:0.81653816;stroke-linecap:round;stroke-linejoin:round;stroke-miterlimit:10;stroke-dasharray:none;stroke-dashoffset:0;stroke-opacity:1;paint-order:markers fill stroke" />
        <path
           inkscape:connector-curvature="0"
           id="path899"
           d="m 448.10725,252.11563 c -0.66696,-0.44525 -2.04917,-0.56143 -8.21854,-0.69082 l -7.41672,-0.15554 v -2.75582 -2.75582 h 7.24195 c 5.8,0 7.53033,-0.10335 8.69023,-0.51906 1.35568,-0.48588 1.51098,-0.48062 2.42931,0.0824 1.3506,0.82799 2.018,2.05642 1.99982,3.68086 -0.0189,1.68767 -0.39265,2.54845 -1.37983,3.17781 -1.00306,0.6395 -2.33047,0.61411 -3.34622,-0.064 z"
           style="opacity:0.56199999;fill:#216778;fill-opacity:1;stroke:#216778;stroke-width:0.81653816;stroke-linecap:round;stroke-linejoin:round;stroke-miterlimit:10;stroke-dasharray:none;stroke-dashoffset:0;stroke-opacity:1;paint-order:markers fill stroke" />
        <path
           inkscape:connector-curvature="0"
           id="path901"
           d="m 449.20544,267.27216 c -0.27798,-0.0895 -0.87934,-0.44385 -1.33635,-0.78742 -0.76191,-0.57279 -1.43581,-0.62477 -8.11401,-0.6259 l -7.28309,-10e-4 v -2.74483 -2.74482 l 9.28761,-0.33703 c 10.28137,-0.37309 10.05903,-0.40776 10.86821,1.69454 0.23316,0.60578 0.42393,1.42729 0.42393,1.82558 0,0.99146 -0.69947,2.72825 -1.27823,3.17386 -0.61773,0.47562 -1.92523,0.75425 -2.56807,0.54725 z"
           style="opacity:0.56199999;fill:#216778;fill-opacity:1;stroke:#216778;stroke-width:0.81653816;stroke-linecap:round;stroke-linejoin:round;stroke-miterlimit:10;stroke-dasharray:none;stroke-dashoffset:0;stroke-opacity:1;paint-order:markers fill stroke" />
        <path
           inkscape:connector-curvature="0"
           id="path903"
           d="m 424.28464,266.87313 c -1.5804,-1.18809 -2.09179,-3.00252 -1.44102,-5.11277 0.5306,-1.72058 2.82203,-2.66967 4.35986,-1.80582 2.12223,1.19213 1.97459,5.95198 -0.21969,7.0823 -1.20296,0.61968 -1.69694,0.58972 -2.69915,-0.16371 z"
           style="opacity:0.56199999;fill:#216778;fill-opacity:1;stroke:#216778;stroke-width:0.81653816;stroke-linecap:round;stroke-linejoin:round;stroke-miterlimit:10;stroke-dasharray:none;stroke-dashoffset:0;stroke-opacity:1;paint-order:markers fill stroke" />
        <path
           inkscape:connector-curvature="0"
           id="path905"
           d="m 429.01814,277.96702 -2.50814,-2.71844 5.52005,-0.16531 c 3.03603,-0.0909 8.00408,-0.0909 11.04012,0 l 5.52007,0.16531 -2.3306,2.71844 -2.33059,2.71844 h -6.20139 -6.20139 z"
           style="opacity:0.56199999;fill:#216778;fill-opacity:1;stroke:#216778;stroke-width:0.81653816;stroke-linecap:round;stroke-linejoin:round;stroke-miterlimit:10;stroke-dasharray:none;stroke-dashoffset:0;stroke-opacity:1;paint-order:markers fill stroke" />
      </g>
    </g>
    <text
       xml:space="preserve"
       style="font-style:normal;font-variant:normal;font-weight:normal;font-stretch:normal;font-size:4.23333311px;line-height:0;font-family:Arial;-inkscape-font-specification:'Arial, Normal';font-variant-ligatures:normal;font-variant-caps:normal;font-variant-numeric:normal;font-feature-settings:normal;text-align:justify;letter-spacing:0px;word-spacing:0px;writing-mode:lr-tb;text-anchor:start;fill:#000000;fill-opacity:1;stroke:none;stroke-width:0.26458332"
       x="51.850288"
       y="293.25824"
       id="text863"><tspan
         sodipodi:role="line"
         id="tspan861"
         x="51.850288"
         y="293.25824"
         style="font-style:normal;font-variant:normal;font-weight:600;font-stretch:normal;font-size:19.75555611px;font-family:Bahnschrift;-inkscape-font-specification:'Bahnschrift Semi-Bold';stroke-width:0.26458332">Integridy <tspan
   style="fill:#000080"
   id="tspan865">data</tspan></tspan></text>
  </g>
</svg>
