<?xml version="1.0" encoding="UTF-8" standalone="no"?>
<!-- Created with Inkscape (http://www.inkscape.org/) -->

<svg
   xmlns:dc="http://purl.org/dc/elements/1.1/"
   xmlns:cc="http://creativecommons.org/ns#"
   xmlns:rdf="http://www.w3.org/1999/02/22-rdf-syntax-ns#"
   xmlns:svg="http://www.w3.org/2000/svg"
   xmlns="http://www.w3.org/2000/svg"
   xmlns:sodipodi="http://sodipodi.sourceforge.net/DTD/sodipodi-0.dtd"
   xmlns:inkscape="http://www.inkscape.org/namespaces/inkscape"
   width="90"
   height="90"
   viewBox="0 0 23.812499 23.812501"
   version="1.1"
   id="svg8"
   inkscape:version="0.92.4 (5da689c313, 2019-01-14)"
   sodipodi:docname="mirna.svg">
  <defs
     id="defs2">
    <clipPath
       clipPathUnits="userSpaceOnUse"
       id="clipPath844">
      <rect
         style="opacity:0.56199999;fill:#374845;fill-opacity:1;stroke:#808080;stroke-width:0.72799999;stroke-linecap:round;stroke-linejoin:round;stroke-miterlimit:10;stroke-dasharray:none;stroke-dashoffset:0;stroke-opacity:1;paint-order:markers fill stroke"
         id="rect846"
         width="18.048363"
         height="28.537201"
         x="11.339283"
         y="271.10861" />
    </clipPath>
  </defs>
  <sodipodi:namedview
     id="base"
     pagecolor="#ffffff"
     bordercolor="#666666"
     borderopacity="1.0"
     inkscape:pageopacity="0.0"
     inkscape:pageshadow="2"
     inkscape:zoom="5.6"
     inkscape:cx="115.64399"
     inkscape:cy="46.184357"
     inkscape:document-units="mm"
     inkscape:current-layer="g828"
     showgrid="false"
     units="px"
     inkscape:window-width="1920"
     inkscape:window-height="1001"
     inkscape:window-x="-9"
     inkscape:window-y="-9"
     inkscape:window-maximized="1" />
  <metadata
     id="metadata5">
    <rdf:RDF>
      <cc:Work
         rdf:about="">
        <dc:format>image/svg+xml</dc:format>
        <dc:type
           rdf:resource="http://purl.org/dc/dcmitype/StillImage" />
        <dc:title></dc:title>
      </cc:Work>
    </rdf:RDF>
  </metadata>
  <g
     inkscape:label="Layer 1"
     inkscape:groupmode="layer"
     id="layer1"
     transform="translate(0,-273.18748)">
    <g
       id="g828"
       transform="translate(1.6063984,0.66145832)">
      <path
         style="fill:#374845;stroke-width:0.0995383"
         d="m 8.1141143,295.50843 c 0.377314,-0.0583 0.840741,-0.207 1.029837,-0.33052 0.67869,-0.44334 1.0822687,-1.575 1.1270047,-3.1602 0.03352,-1.18765 -0.0035,-1.39494 -0.3545707,-1.98386 -1.252389,-1.74727 -0.563627,-0.51416 -0.342335,-3.88007 0.234211,-0.1852 0.4959577,-0.45206 0.5816577,-0.59303 0.246259,-0.40506 0.392216,-1.26259 0.331858,-1.94974 -0.100573,-1.14501 -0.210821,-1.53007 -0.6089947,-2.12704 -0.413504,-0.61996 -0.490082,-0.67844 -1.400676,-1.06962 -1.264881,-0.54338 -1.919725,-1.89528 -1.550373,-3.20068 0.272426,-0.96284 1.307055,-1.97149 2.633292,-2.56717 0.6318327,-0.28379 0.8825427,-0.33075 1.7989807,-0.33695 1.13596,-0.008 1.688848,0.18106 2.245823,0.76673 0.275116,0.28929 0.61662,1.27528 0.699477,2.01952 0.12357,1.10994 -0.139016,1.68425 -1.286159,2.81301 -0.972391,0.95681 -1.010527,1.09484 -1.139894,4.12556 -0.06774,1.58696 -0.06588,2.73745 0.0075,4.59647 0.154658,3.92101 0.299134,4.79961 0.92698,5.63724 0.745326,0.99437 1.558357,1.19937 4.384798,1.10558 1.097329,-0.0364 2.012637,-0.092 2.034018,-0.12361 0.07847,-0.11588 0.132251,-0.92992 0.08126,-1.22994 l -0.05251,-0.30896 -2.353366,-0.003 c -3.034314,-0.004 -3.220553,-0.0664 -3.563108,-1.19747 -0.262258,-0.86595 -0.446217,-5.53051 -0.329806,-8.36275 0.05922,-1.44083 0.125647,-2.24036 0.196624,-2.36666 0.05895,-0.1049 0.410252,-0.48545 0.780664,-0.84568 0.932947,-0.90729 1.280623,-1.5805 1.429199,-2.76738 0.217047,-1.73385 -0.449673,-3.87704 -1.458289,-4.68771 -0.528982,-0.42516 -3.180813,-0.72846 -3.357227,-0.57626 -0.10935,0.0943 1.666992,0.25803 1.835463,0.26213 0.521402,0.13222 1.61325,0.50733 2.071975,1.20535 0.49849,0.75854 0.886482,2.53131 0.781111,3.56896 -0.125997,1.24076 -0.470223,1.90819 -1.52359,2.95413 -0.39066,0.38791 -0.735026,0.80048 -0.765259,0.91682 -0.15251,0.58691 -0.227165,4.30479 -0.1345,6.69822 0.116478,3.00849 0.187894,3.73619 0.431107,4.39283 0.378465,1.02179 1.135328,1.23823 3.934839,1.12524 l 1.945374,-0.0785 v 0.53744 0.53744 l -0.442183,0.0816 c -0.2432,0.0449 -1.358207,0.0571 -2.477792,0.027 -2.256224,-0.0604 -2.61461,-0.15391 -3.164257,-0.82521 -0.3073,-0.37531 -0.5853,-1.03939 -0.729352,-1.74225 -0.117894,-0.57522 -0.307752,-4.54047 -0.310017,-6.47479 -0.0027,-2.28635 0.131397,-4.42336 0.30938,-4.93125 0.09008,-0.25706 0.424918,-0.6819 0.95762,-1.21503 0.964132,-0.96491 1.211465,-1.47471 1.205296,-2.48431 -0.0048,-0.77903 -0.278748,-1.83374 -0.607479,-2.33846 -0.943167,-1.44813 -3.510788,-1.47387 -5.5124477,-0.0553 -1.575518,1.11659 -2.169483,2.79851 -1.452728,4.11364 0.494016,0.90643 0.886613,1.23186 2.055399,1.70376 0.814479,0.32884 1.3888757,1.79951 1.2968047,3.32031 -0.05526,0.91282 -0.20573,1.20323 -0.9643157,1.86115 -0.334135,0.2898 0.140042,1.04952 -0.04876,1.32078 -1.254004,2.60294 0.7871707,1.56482 0.8013777,4.49404 -0.0067,1.51009 -0.3660977,2.67135 -0.9435447,3.04855 -0.358832,0.2344 -1.409924,0.4669 -2.216473,0.49028 -0.398624,0.0116 -6.13909904,0.0321 -5.94065504,0.10667 0.31237404,0.11738 6.26523904,0.11423 7.11599304,-0.0171 z m -7.034087,-0.51001 v -0.52713 l 3.092121,-0.0727 c 3.028101,-0.0712 4.192399,-0.19318 4.606036,-0.48267 0.291133,-0.20376 0.509679,-0.94653 0.555253,-1.88712 0.03577,-0.73821 0.0209,-0.83691 -0.178895,-1.18755 -0.132193,-0.232 -0.40183,-0.48176 -0.685491,-0.63497 -0.863213,-0.46622 -0.927954,-0.5211 -1.128159,-0.95618 -0.240671,-0.52303 -0.264157,-1.28597 -0.05946,-1.93157 0.199919,-0.63054 0.89275,-1.57455 1.567847,-2.13625 0.642615,-0.53468 0.789834,-0.87688 0.698461,-1.6235 -0.123,-1.00506 -0.441505,-1.4838 -1.171829,-1.76134 -1.119779,-0.42556 -2.058891,-1.49728 -2.325858,-2.65431 -0.452396,-1.96067 0.196948,-3.71604 1.837495,-4.96729 0.742057,-0.56596 2.2860477,-1.15374 2.8502597,-1.16832 0.256061,-0.007 0.271932,-0.0224 0.115964,-0.11509 -0.400318,-0.238 -2.1313957,0.34427 -3.1799477,1.13958 -2.135441,1.6197 -2.633169,4.55445 -1.125602,6.63687 0.470405,0.64977 0.854136,0.96239 1.53762,1.25269 0.738573,0.3137 0.935974,0.50298 1.107964,1.06239 0.307817,1.00121 0.21827,1.40905 -0.419611,1.91112 -1.16396,1.14103 -2.771265,3.48045 -1.294342,4.91737 0.151734,0.13825 0.494733,0.37212 0.762219,0.51971 0.267486,0.14759 0.576235,0.4011 0.686109,0.56336 0.184027,0.27176 0.196584,0.36334 0.159341,1.16218 -0.05305,1.13781 -0.173923,1.50268 -0.546507,1.64964 -0.619916,0.24451 -2.193794,0.36646 -4.730763,0.36655 -1.449204,6e-5 -2.693219,0.0332 -2.76448,0.0735 -0.09598,0.0544 -0.12956504,0.24249 -0.12956504,0.72576 0,0.35878 0.03686,0.65233 0.08191,0.65233 0.04505,0 0.08191,-0.2372 0.08191,-0.52712 z"
         id="path832"
         inkscape:connector-curvature="0"
         sodipodi:nodetypes="ccscccscccccssssscccccccsccsccccsccsccccccccccscscccccccccccccccccccccccccscccscccccscccccsscc"
         clip-path="url(#clipPath844)" />
      <path
         clip-path="url(#clipPath844)"
         sodipodi:nodetypes="ccscccscccccssssscccccccsccsccccsccsccccccccccscscccccccccccccccccccccccccscccscccccscccccsscc"
         inkscape:connector-curvature="0"
         id="path848"
         d="m 8.1141143,295.50843 c 0.377314,-0.0583 0.840741,-0.207 1.029837,-0.33052 0.67869,-0.44334 1.0822687,-1.575 1.1270047,-3.1602 0.03352,-1.18765 -0.0035,-1.39494 -0.3545707,-1.98386 -1.252389,-1.74727 -0.563627,-0.51416 -0.342335,-3.88007 0.234211,-0.1852 0.4959577,-0.45206 0.5816577,-0.59303 0.246259,-0.40506 0.392216,-1.26259 0.331858,-1.94974 -0.100573,-1.14501 -0.210821,-1.53007 -0.6089947,-2.12704 -0.413504,-0.61996 -0.490082,-0.67844 -1.400676,-1.06962 -1.264881,-0.54338 -1.919725,-1.89528 -1.550373,-3.20068 0.272426,-0.96284 1.307055,-1.97149 2.633292,-2.56717 0.6318327,-0.28379 0.8825427,-0.33075 1.7989807,-0.33695 1.13596,-0.008 1.688848,0.18106 2.245823,0.76673 0.275116,0.28929 0.61662,1.27528 0.699477,2.01952 0.12357,1.10994 -0.139016,1.68425 -1.286159,2.81301 -0.972391,0.95681 -1.010527,1.09484 -1.139894,4.12556 -0.06774,1.58696 -0.06588,2.73745 0.0075,4.59647 0.154658,3.92101 0.299134,4.79961 0.92698,5.63724 0.745326,0.99437 1.558357,1.19937 4.384798,1.10558 1.097329,-0.0364 2.012637,-0.092 2.034018,-0.12361 0.07847,-0.11588 0.132251,-0.92992 0.08126,-1.22994 l -0.05251,-0.30896 -2.353366,-0.003 c -3.034314,-0.004 -3.220553,-0.0664 -3.563108,-1.19747 -0.262258,-0.86595 -0.446217,-5.53051 -0.329806,-8.36275 0.05922,-1.44083 0.125647,-2.24036 0.196624,-2.36666 0.05895,-0.1049 0.410252,-0.48545 0.780664,-0.84568 0.932947,-0.90729 1.280623,-1.5805 1.429199,-2.76738 0.217047,-1.73385 -0.449673,-3.87704 -1.458289,-4.68771 -0.528982,-0.42516 -3.180813,-0.72846 -3.357227,-0.57626 -0.10935,0.0943 1.666992,0.25803 1.835463,0.26213 0.521402,0.13222 1.61325,0.50733 2.071975,1.20535 0.49849,0.75854 0.886482,2.53131 0.781111,3.56896 -0.125997,1.24076 -0.470223,1.90819 -1.52359,2.95413 -0.39066,0.38791 -0.735026,0.80048 -0.765259,0.91682 -0.15251,0.58691 -0.227165,4.30479 -0.1345,6.69822 0.116478,3.00849 0.187894,3.73619 0.431107,4.39283 0.378465,1.02179 1.135328,1.23823 3.934839,1.12524 l 1.945374,-0.0785 v 0.53744 0.53744 l -0.442183,0.0816 c -0.2432,0.0449 -1.358207,0.0571 -2.477792,0.027 -2.256224,-0.0604 -2.61461,-0.15391 -3.164257,-0.82521 -0.3073,-0.37531 -0.5853,-1.03939 -0.729352,-1.74225 -0.117894,-0.57522 -0.307752,-4.54047 -0.310017,-6.47479 -0.0027,-2.28635 0.131397,-4.42336 0.30938,-4.93125 0.09008,-0.25706 0.424918,-0.6819 0.95762,-1.21503 0.964132,-0.96491 1.211465,-1.47471 1.205296,-2.48431 -0.0048,-0.77903 -0.278748,-1.83374 -0.607479,-2.33846 -0.943167,-1.44813 -3.510788,-1.47387 -5.5124477,-0.0553 -1.575518,1.11659 -2.169483,2.79851 -1.452728,4.11364 0.494016,0.90643 0.886613,1.23186 2.055399,1.70376 0.814479,0.32884 1.3888757,1.79951 1.2968047,3.32031 -0.05526,0.91282 -0.20573,1.20323 -0.9643157,1.86115 -0.334135,0.2898 0.140042,1.04952 -0.04876,1.32078 -1.254004,2.60294 0.7871707,1.56482 0.8013777,4.49404 -0.0067,1.51009 -0.3660977,2.67135 -0.9435447,3.04855 -0.358832,0.2344 -1.409924,0.4669 -2.216473,0.49028 -0.398624,0.0116 -6.13909904,0.0321 -5.94065504,0.10667 0.31237404,0.11738 6.26523904,0.11423 7.11599304,-0.0171 z m -7.034087,-0.51001 v -0.52713 l 3.092121,-0.0727 c 3.028101,-0.0712 4.192399,-0.19318 4.606036,-0.48267 0.291133,-0.20376 0.509679,-0.94653 0.555253,-1.88712 0.03577,-0.73821 0.0209,-0.83691 -0.178895,-1.18755 -0.132193,-0.232 -0.40183,-0.48176 -0.685491,-0.63497 -0.863213,-0.46622 -0.927954,-0.5211 -1.128159,-0.95618 -0.240671,-0.52303 -0.264157,-1.28597 -0.05946,-1.93157 0.199919,-0.63054 0.89275,-1.57455 1.567847,-2.13625 0.642615,-0.53468 0.789834,-0.87688 0.698461,-1.6235 -0.123,-1.00506 -0.441505,-1.4838 -1.171829,-1.76134 -1.119779,-0.42556 -2.058891,-1.49728 -2.325858,-2.65431 -0.452396,-1.96067 0.196948,-3.71604 1.837495,-4.96729 0.742057,-0.56596 2.2860477,-1.15374 2.8502597,-1.16832 0.256061,-0.007 0.271932,-0.0224 0.115964,-0.11509 -0.400318,-0.238 -2.1313957,0.34427 -3.1799477,1.13958 -2.135441,1.6197 -2.633169,4.55445 -1.125602,6.63687 0.470405,0.64977 0.854136,0.96239 1.53762,1.25269 0.738573,0.3137 0.935974,0.50298 1.107964,1.06239 0.307817,1.00121 0.21827,1.40905 -0.419611,1.91112 -1.16396,1.14103 -2.771265,3.48045 -1.294342,4.91737 0.151734,0.13825 0.494733,0.37212 0.762219,0.51971 0.267486,0.14759 0.576235,0.4011 0.686109,0.56336 0.184027,0.27176 0.196584,0.36334 0.159341,1.16218 -0.05305,1.13781 -0.173923,1.50268 -0.546507,1.64964 -0.619916,0.24451 -2.193794,0.36646 -4.730763,0.36655 -1.449204,6e-5 -2.693219,0.0332 -2.76448,0.0735 -0.09598,0.0544 -0.12956504,0.24249 -0.12956504,0.72576 0,0.35878 0.03686,0.65233 0.08191,0.65233 0.04505,0 0.08191,-0.2372 0.08191,-0.52712 z"
         style="fill:#374845;stroke-width:0.0995383"
         transform="matrix(-1,0,0,1,22.735344,0)" />
      <path
         style="opacity:0.56199999;fill:#216778;fill-opacity:1;stroke:#216778;stroke-width:0.69485772;stroke-linecap:round;stroke-linejoin:round;stroke-miterlimit:10;stroke-dasharray:none;stroke-dashoffset:0;stroke-opacity:1;paint-order:markers fill stroke"
         d="m 20.536536,85.129822 c -0.755167,-0.160768 -0.757854,-0.167673 -0.83175,-2.137713 l -0.07414,-1.976426 2.473248,0.172122 c 1.360287,0.09467 4.859733,0.188083 7.776549,0.207592 C 41.265361,81.471547 42.37522,80.312513 43.141392,67.546932 43.802329,56.5348 43.66242,37.011228 42.90836,35.0279 c -0.127871,-0.336326 -1.38297,-1.84585 -2.789111,-3.3545 -3.845156,-4.125475 -4.894253,-5.926502 -5.567796,-9.55846 -0.676562,-3.648237 0.239176,-9.932938 1.993601,-13.6820563 1.204308,-2.5735484 3.259979,-4.1542412 7.22499,-5.5556042 1.876174,-0.6631008 8.533054,-0.6691949 10.480333,-0.00959 2.448027,0.8292191 4.762051,2.1878837 5.920168,3.4759873 2.44683,2.7214631 4.153258,10.2300562 3.437461,15.1254322 -0.571577,3.909033 -1.598046,5.804018 -5.26095,9.712336 -3.34781,3.572114 -3.297262,3.463416 -3.587466,7.714244 -0.322734,4.727282 -0.325431,18.343204 -0.005,25.115714 0.511041,10.800467 1.012486,13.359042 2.995302,15.283325 0.71215,0.691128 1.608938,1.270928 2.273926,1.470163 2.634498,0.789316 7.219475,0.901993 16.018952,0.393669 l 2.473249,-0.142873 -0.07414,1.967613 -0.07413,1.967613 -1.010153,0.22188 C 75.970192,85.477534 62.053977,85.211319 60.193036,84.844429 57.267609,84.267674 55.847342,83.08096 54.354557,79.966038 52.773504,76.666936 52.483734,74.106244 51.939696,58.625939 51.698361,51.758857 51.696989,48.407635 51.933433,43.288117 52.425792,32.627184 52.48637,32.413542 56.106131,28.572156 60.093289,24.340872 60.803093,23.072465 61.006277,19.815671 61.228266,16.257493 60.172866,11.812144 58.567352,9.5428856 56.716647,6.927069 54.191124,5.7909121 49.83096,5.6126437 45.526695,5.4366604 42.779054,6.2410048 40.496145,8.3453174 38.496729,10.188314 37.077784,14.491631 37.077784,18.712374 c 0,3.945891 0.653682,5.316116 4.494902,9.422053 2.744126,2.933238 3.463582,4.010497 3.806299,5.699278 1.105799,5.448922 1.11142,26.653367 0.0104,39.269066 -0.400099,4.584469 -1.560339,7.672384 -3.718274,9.895988 -1.274809,1.313605 -2.660681,1.769731 -6.361109,2.093606 -3.137074,0.27457 -13.535872,0.300935 -14.773481,0.03746 z"
         id="path850"
         inkscape:connector-curvature="0"
         transform="matrix(0.26458333,0,0,0.26458333,-1.6063984,272.52602)" />
      <path
         style="opacity:0.56199999;fill:#216778;fill-opacity:1;stroke:#216778;stroke-width:0.24566929;stroke-linecap:round;stroke-linejoin:round;stroke-miterlimit:10;stroke-dasharray:none;stroke-dashoffset:0;stroke-opacity:1;paint-order:markers fill stroke"
         d="m 23.610181,84.897466 c -2.886044,-0.05956 -3.313621,-0.108043 -3.421024,-0.387932 -0.02889,-0.07528 -0.08086,-0.807764 -0.115484,-1.627749 l -0.06296,-1.490881 0.572058,0.05768 c 1.618975,0.163232 4.983535,0.261712 9.188128,0.268934 5.108914,0.0088 6.070448,-0.05419 7.890259,-0.516704 1.330711,-0.338206 2.107522,-0.759819 2.967781,-1.610754 0.59971,-0.59321 0.795072,-0.861986 1.137153,-1.564478 0.870583,-1.787813 1.283608,-4.002575 1.615111,-8.660714 0.371027,-5.213527 0.518701,-10.53568 0.519016,-18.705358 3.57e-4,-9.955315 -0.228372,-14.851349 -0.742555,-15.892857 -0.218002,-0.441575 -1.083491,-1.476237 -3.011291,-3.599892 -2.845444,-3.134529 -3.889811,-4.637636 -4.570904,-6.578679 -0.729847,-2.079987 -0.995974,-4.280475 -0.81979,-6.778483 0.189725,-2.689993 0.614516,-4.948555 1.356081,-7.21012 0.93487,-2.8510921 1.945031,-4.2834041 3.926996,-5.5681055 1.241261,-0.80458 3.346065,-1.7188762 4.503641,-1.9563154 2.058329,-0.4221997 6.846188,-0.4252266 8.948612,-0.00566 1.754795,0.3501945 4.604135,1.8366877 6.002897,3.1316951 1.228708,1.1375664 2.306715,3.3634302 3.043457,6.2841168 1.314774,5.21219 1.0942,10.069483 -0.60914,13.414012 -0.76894,1.509824 -1.746586,2.765486 -4.297205,5.519214 -2.620848,2.82955 -2.897695,3.356356 -3.121379,5.939633 -0.445372,5.143496 -0.472553,20.018417 -0.05123,28.033581 0.411346,7.825309 0.813458,10.568308 1.838988,12.544644 0.823087,1.586197 2.50708,2.925636 4.187785,3.33094 2.742659,0.661395 8.238786,0.722465 16.742577,0.18604 l 0.894362,-0.05642 -0.03214,1.327754 c -0.04175,1.724604 -0.08153,1.916836 -0.420115,2.029993 -0.701408,0.234416 -12.080657,0.140599 -15.886028,-0.130973 -3.142332,-0.224254 -4.817315,-1.073999 -6.141952,-3.115908 -1.653832,-2.549356 -2.318989,-4.917611 -2.695791,-9.598215 -0.428723,-5.325557 -0.909399,-19.459288 -0.807717,-23.75 0.06494,-2.740161 0.360684,-9.239486 0.495671,-10.892857 0.238002,-2.915119 0.610435,-4.426113 1.395624,-5.662168 0.4138,-0.651408 0.849161,-1.1661 2.53637,-2.998546 0.768654,-0.834822 1.637403,-1.799107 1.930551,-2.142857 2.381368,-2.792428 2.974951,-4.50887 2.856118,-8.258929 C 61.233342,14.437188 60.15189,10.93966 58.452546,8.8247131 56.995748,7.0116401 55.159634,5.9927534 52.49304,5.5176992 51.13605,5.2759512 47.811109,5.178915 46.507409,5.3430126 44.074384,5.6492589 42.319331,6.3679466 40.63308,7.7485272 38.282816,9.6727535 36.734033,14.069048 36.735708,18.811403 c 0.0014,3.996958 0.623395,5.278481 4.732089,9.749891 2.384291,2.594777 3.109861,3.6244 3.435728,4.875486 0.321869,1.235743 0.571331,3.787457 0.775939,7.937014 0.150795,3.058196 0.151051,16.121238 3.57e-4,20.089286 -0.210042,5.53212 -0.520078,10.574 -0.779633,12.678571 -0.483681,3.921875 -1.613325,6.686766 -3.516935,8.607968 -1.494728,1.508542 -3.711974,1.999199 -9.51418,2.105406 -1.424107,0.02607 -3.212054,0.05975 -3.973215,0.07486 -0.76116,0.01511 -2.689732,5.36e-4 -4.285714,-0.03242 z"
         id="path854"
         inkscape:connector-curvature="0"
         transform="matrix(0.26458333,0,0,0.26458333,-1.6063984,272.52602)" />
    </g>
  </g>
</svg>
